<svg width="82" height="44" viewBox="0 0 82 44" fill="none" xmlns="http://www.w3.org/2000/svg">
<path d="M13.608 8.796L11.628 18.228H15.732L17.712 8.796H24.408L19.08 34.5H12.384L14.58 23.916H10.476L8.28 34.5H1.584L6.912 8.796H13.608ZM32.8039 8.796L33.4519 17.76H33.5239L37.9159 8.796H45.2599L35.4679 24.384L33.3799 34.5H26.6839L28.7719 24.384L25.4599 8.796H32.8039ZM56.151 8.796C57.951 8.796 59.391 9.264 60.471 10.2C61.551 11.136 62.091 12.54 62.091 14.412C62.091 16.212 61.659 17.976 60.831 19.668C60.003 21.396 58.779 22.656 57.195 23.52C55.611 24.384 53.811 24.78 51.831 24.708H49.419L47.403 34.5H40.707L46.035 8.796H56.151ZM50.427 19.884H51.759C52.767 19.884 53.559 19.488 54.171 18.66C54.747 17.832 55.071 16.824 55.071 15.672C55.071 14.304 54.351 13.62 52.983 13.62H51.723L50.427 19.884ZM75.3069 8.796C77.3949 8.796 79.0149 9.264 80.0949 10.2C81.1749 11.136 81.7509 12.72 81.7509 14.916C81.7509 17.004 81.3189 19.74 80.5269 23.088C79.6989 26.436 78.8349 28.848 77.9709 30.288C77.1069 31.728 75.9909 32.808 74.6949 33.492C73.3989 34.176 71.8509 34.5 70.0509 34.5H60.2949L65.6229 8.796H75.3069ZM67.9629 29.676H69.2229C70.2309 29.676 70.9509 29.496 71.4189 29.064C71.8509 28.632 72.2829 27.876 72.6429 26.724C73.0029 25.608 73.4709 23.736 74.0109 21.072C74.5509 18.408 74.8389 16.644 74.8389 15.708C74.8389 14.844 74.6229 14.268 74.2629 14.016C73.9029 13.764 73.3269 13.62 72.6069 13.62H71.3109L67.9629 29.676Z" fill="url(#paint0_linear_604_29028)"/>
<defs>
<linearGradient id="paint0_linear_604_29028" x1="80" y1="43.5" x2="44.1363" y2="-23.2232" gradientUnits="userSpaceOnUse">
<stop stop-color="#FF4E50"/>
<stop offset="1" stop-color="#F9D423"/>
</linearGradient>
</defs>
</svg>
